<mxfile host="app.diagrams.net" modified="2024-06-17T15:24:52.198Z" agent="Mozilla/5.0 (Windows NT 10.0; Win64; x64) AppleWebKit/537.36 (KHTML, like Gecko) Chrome/125.0.0.0 Safari/537.36" etag="GwNjKbgZcOF9ni2uFYt_" version="24.5.4" type="device">
  <diagram name="Page-1" id="HkpDXwnQlSgIey2hkaTk">
    <mxGraphModel dx="1318" dy="1724" grid="1" gridSize="10" guides="1" tooltips="1" connect="1" arrows="1" fold="1" page="1" pageScale="1" pageWidth="827" pageHeight="1169" math="0" shadow="0">
      <root>
        <mxCell id="0" />
        <mxCell id="1" parent="0" />
        <mxCell id="UZP56nt51odomZRpYaf9-1" value="&lt;font style=&quot;font-size: 16px;&quot;&gt;Placement coordinator&lt;/font&gt;" style="rounded=0;whiteSpace=wrap;html=1;" vertex="1" parent="1">
          <mxGeometry x="10" y="80" width="150" height="80" as="geometry" />
        </mxCell>
        <mxCell id="UZP56nt51odomZRpYaf9-2" value="&lt;font style=&quot;font-size: 16px;&quot;&gt;0.0&lt;/font&gt;&lt;div&gt;&lt;font size=&quot;3&quot;&gt;Placement Managment System&lt;/font&gt;&lt;/div&gt;" style="ellipse;whiteSpace=wrap;html=1;aspect=fixed;" vertex="1" parent="1">
          <mxGeometry x="650" y="40" width="150" height="150" as="geometry" />
        </mxCell>
        <mxCell id="UZP56nt51odomZRpYaf9-3" value="&lt;font size=&quot;3&quot;&gt;Student&lt;/font&gt;" style="rounded=0;whiteSpace=wrap;html=1;" vertex="1" parent="1">
          <mxGeometry x="20" y="400" width="140" height="90" as="geometry" />
        </mxCell>
        <mxCell id="UZP56nt51odomZRpYaf9-8" value="" style="endArrow=classic;html=1;rounded=0;entryX=0.607;entryY=0.987;entryDx=0;entryDy=0;entryPerimeter=0;exitX=0.95;exitY=1.022;exitDx=0;exitDy=0;exitPerimeter=0;" edge="1" parent="1" source="UZP56nt51odomZRpYaf9-3" target="UZP56nt51odomZRpYaf9-2">
          <mxGeometry width="50" height="50" relative="1" as="geometry">
            <mxPoint x="140" y="510" as="sourcePoint" />
            <mxPoint x="730" y="200" as="targetPoint" />
            <Array as="points">
              <mxPoint x="153" y="510" />
              <mxPoint x="260" y="510" />
              <mxPoint x="370" y="510" />
              <mxPoint x="560" y="510" />
              <mxPoint x="742" y="510" />
              <mxPoint x="742" y="400" />
              <mxPoint x="742" y="320" />
              <mxPoint x="742" y="260" />
            </Array>
          </mxGeometry>
        </mxCell>
        <mxCell id="UZP56nt51odomZRpYaf9-10" value="" style="endArrow=classic;html=1;rounded=0;exitX=0.8;exitY=0.92;exitDx=0;exitDy=0;exitPerimeter=0;entryX=0.707;entryY=1.011;entryDx=0;entryDy=0;entryPerimeter=0;" edge="1" parent="1" source="UZP56nt51odomZRpYaf9-2" target="UZP56nt51odomZRpYaf9-3">
          <mxGeometry width="50" height="50" relative="1" as="geometry">
            <mxPoint x="750" y="170" as="sourcePoint" />
            <mxPoint x="160" y="470" as="targetPoint" />
            <Array as="points">
              <mxPoint x="770" y="340" />
              <mxPoint x="770" y="440" />
              <mxPoint x="770" y="520" />
              <mxPoint x="770" y="540" />
              <mxPoint x="700" y="540" />
              <mxPoint x="580" y="540" />
              <mxPoint x="490" y="540" />
              <mxPoint x="290" y="540" />
              <mxPoint x="119" y="540" />
            </Array>
          </mxGeometry>
        </mxCell>
        <mxCell id="UZP56nt51odomZRpYaf9-12" value="" style="endArrow=classic;html=1;rounded=0;" edge="1" parent="1">
          <mxGeometry width="50" height="50" relative="1" as="geometry">
            <mxPoint x="80" y="80" as="sourcePoint" />
            <mxPoint x="713" y="40" as="targetPoint" />
            <Array as="points">
              <mxPoint x="80" />
              <mxPoint x="400" />
              <mxPoint x="570" />
              <mxPoint x="713" />
            </Array>
          </mxGeometry>
        </mxCell>
        <mxCell id="UZP56nt51odomZRpYaf9-13" value="" style="endArrow=classic;html=1;rounded=0;entryX=0;entryY=0;entryDx=0;entryDy=0;exitX=1;exitY=0;exitDx=0;exitDy=0;" edge="1" parent="1" source="UZP56nt51odomZRpYaf9-1" target="UZP56nt51odomZRpYaf9-2">
          <mxGeometry width="50" height="50" relative="1" as="geometry">
            <mxPoint x="140" y="81" as="sourcePoint" />
            <mxPoint x="715" y="51" as="targetPoint" />
            <Array as="points">
              <mxPoint x="160" y="60" />
              <mxPoint x="210" y="60" />
              <mxPoint x="330" y="60" />
              <mxPoint x="510" y="60" />
              <mxPoint x="600" y="60" />
            </Array>
          </mxGeometry>
        </mxCell>
        <mxCell id="UZP56nt51odomZRpYaf9-14" value="" style="endArrow=classic;html=1;rounded=0;exitX=0.993;exitY=0.62;exitDx=0;exitDy=0;exitPerimeter=0;entryX=0.421;entryY=1;entryDx=0;entryDy=0;entryPerimeter=0;" edge="1" parent="1" source="UZP56nt51odomZRpYaf9-2" target="UZP56nt51odomZRpYaf9-3">
          <mxGeometry width="50" height="50" relative="1" as="geometry">
            <mxPoint x="750" y="180" as="sourcePoint" />
            <mxPoint x="77" y="493" as="targetPoint" />
            <Array as="points">
              <mxPoint x="800" y="560" />
              <mxPoint x="800" y="570" />
              <mxPoint x="620" y="570" />
              <mxPoint x="440" y="570" />
              <mxPoint x="240" y="570" />
              <mxPoint x="79" y="570" />
            </Array>
          </mxGeometry>
        </mxCell>
        <mxCell id="UZP56nt51odomZRpYaf9-15" value="" style="endArrow=classic;html=1;rounded=0;exitX=1;exitY=0.5;exitDx=0;exitDy=0;entryX=0.273;entryY=0.96;entryDx=0;entryDy=0;entryPerimeter=0;" edge="1" parent="1" source="UZP56nt51odomZRpYaf9-3" target="UZP56nt51odomZRpYaf9-2">
          <mxGeometry width="50" height="50" relative="1" as="geometry">
            <mxPoint x="173" y="449" as="sourcePoint" />
            <mxPoint x="650" y="250" as="targetPoint" />
            <Array as="points">
              <mxPoint x="310" y="445" />
              <mxPoint x="470" y="445" />
              <mxPoint x="650" y="445" />
              <mxPoint x="690" y="445" />
              <mxPoint x="690" y="423" />
              <mxPoint x="690" y="310" />
            </Array>
          </mxGeometry>
        </mxCell>
        <mxCell id="UZP56nt51odomZRpYaf9-26" value="" style="endArrow=classic;html=1;rounded=0;" edge="1" parent="1">
          <mxGeometry width="50" height="50" relative="1" as="geometry">
            <mxPoint x="160" y="89" as="sourcePoint" />
            <mxPoint x="660" y="90" as="targetPoint" />
            <Array as="points">
              <mxPoint x="300" y="89" />
              <mxPoint x="440" y="89" />
              <mxPoint x="500" y="89" />
              <mxPoint x="560" y="89" />
            </Array>
          </mxGeometry>
        </mxCell>
        <mxCell id="UZP56nt51odomZRpYaf9-27" value="" style="endArrow=classic;html=1;rounded=0;entryX=1;entryY=0.5;entryDx=0;entryDy=0;" edge="1" parent="1" target="UZP56nt51odomZRpYaf9-1">
          <mxGeometry width="50" height="50" relative="1" as="geometry">
            <mxPoint x="650" y="120" as="sourcePoint" />
            <mxPoint x="160" y="119" as="targetPoint" />
            <Array as="points">
              <mxPoint x="570" y="120" />
              <mxPoint x="470" y="120" />
              <mxPoint x="380" y="120" />
              <mxPoint x="280" y="120" />
            </Array>
          </mxGeometry>
        </mxCell>
        <mxCell id="UZP56nt51odomZRpYaf9-28" value="" style="endArrow=classic;html=1;rounded=0;entryX=1;entryY=0.875;entryDx=0;entryDy=0;entryPerimeter=0;" edge="1" parent="1" target="UZP56nt51odomZRpYaf9-1">
          <mxGeometry width="50" height="50" relative="1" as="geometry">
            <mxPoint x="660" y="150" as="sourcePoint" />
            <mxPoint x="173" y="131" as="targetPoint" />
            <Array as="points">
              <mxPoint x="610" y="150" />
              <mxPoint x="550" y="150" />
              <mxPoint x="410" y="150" />
              <mxPoint x="290" y="150" />
            </Array>
          </mxGeometry>
        </mxCell>
        <mxCell id="UZP56nt51odomZRpYaf9-30" value="" style="endArrow=classic;html=1;rounded=0;" edge="1" parent="1">
          <mxGeometry width="50" height="50" relative="1" as="geometry">
            <mxPoint x="163" y="480" as="sourcePoint" />
            <mxPoint x="720" y="190" as="targetPoint" />
            <Array as="points">
              <mxPoint x="300" y="480" />
              <mxPoint x="520" y="480" />
              <mxPoint x="720" y="480" />
              <mxPoint x="720" y="460" />
              <mxPoint x="720" y="440" />
              <mxPoint x="720" y="340" />
              <mxPoint x="720" y="270" />
            </Array>
          </mxGeometry>
        </mxCell>
        <mxCell id="UZP56nt51odomZRpYaf9-32" value="" style="endArrow=classic;html=1;rounded=0;" edge="1" parent="1">
          <mxGeometry width="50" height="50" relative="1" as="geometry">
            <mxPoint x="120" y="80" as="sourcePoint" />
            <mxPoint x="690" y="50" as="targetPoint" />
            <Array as="points">
              <mxPoint x="120" y="30" />
              <mxPoint x="280" y="30" />
              <mxPoint x="460" y="30" />
              <mxPoint x="590" y="30" />
              <mxPoint x="690" y="30" />
            </Array>
          </mxGeometry>
        </mxCell>
        <mxCell id="UZP56nt51odomZRpYaf9-33" value="" style="endArrow=classic;html=1;rounded=0;entryX=0.6;entryY=0;entryDx=0;entryDy=0;entryPerimeter=0;exitX=0.187;exitY=-0.025;exitDx=0;exitDy=0;exitPerimeter=0;" edge="1" parent="1" source="UZP56nt51odomZRpYaf9-1" target="UZP56nt51odomZRpYaf9-2">
          <mxGeometry width="50" height="50" relative="1" as="geometry">
            <mxPoint x="100" y="100" as="sourcePoint" />
            <mxPoint x="733" y="61" as="targetPoint" />
            <Array as="points">
              <mxPoint x="38" y="-40" />
              <mxPoint x="410" y="-40" />
              <mxPoint x="580" y="-40" />
              <mxPoint x="740" y="-40" />
              <mxPoint x="740" y="20" />
            </Array>
          </mxGeometry>
        </mxCell>
        <mxCell id="UZP56nt51odomZRpYaf9-34" value="&lt;font style=&quot;font-size: 16px;&quot;&gt;Upload results&lt;/font&gt;" style="text;html=1;align=center;verticalAlign=middle;resizable=0;points=[];autosize=1;strokeColor=none;fillColor=none;" vertex="1" parent="1">
          <mxGeometry x="300" y="-70" width="130" height="30" as="geometry" />
        </mxCell>
        <mxCell id="UZP56nt51odomZRpYaf9-35" value="&lt;font style=&quot;font-size: 16px;&quot;&gt;Approve question bank&lt;/font&gt;" style="text;html=1;align=center;verticalAlign=middle;resizable=0;points=[];autosize=1;strokeColor=none;fillColor=none;" vertex="1" parent="1">
          <mxGeometry x="270" y="-30" width="190" height="30" as="geometry" />
        </mxCell>
        <mxCell id="UZP56nt51odomZRpYaf9-37" value="&lt;span style=&quot;font-size: 16px;&quot;&gt;Upload company details&lt;/span&gt;" style="text;html=1;align=center;verticalAlign=middle;resizable=0;points=[];autosize=1;strokeColor=none;fillColor=none;" vertex="1" parent="1">
          <mxGeometry x="270" width="190" height="30" as="geometry" />
        </mxCell>
        <mxCell id="UZP56nt51odomZRpYaf9-46" value="&lt;font style=&quot;font-size: 16px;&quot;&gt;Upload schedule&lt;/font&gt;" style="text;html=1;align=center;verticalAlign=middle;resizable=0;points=[];autosize=1;strokeColor=none;fillColor=none;" vertex="1" parent="1">
          <mxGeometry x="290" y="30" width="140" height="30" as="geometry" />
        </mxCell>
        <mxCell id="UZP56nt51odomZRpYaf9-47" value="&lt;font style=&quot;font-size: 16px;&quot;&gt;Upload list&lt;/font&gt;" style="text;html=1;align=center;verticalAlign=middle;resizable=0;points=[];autosize=1;strokeColor=none;fillColor=none;" vertex="1" parent="1">
          <mxGeometry x="310" y="60" width="100" height="30" as="geometry" />
        </mxCell>
        <mxCell id="UZP56nt51odomZRpYaf9-48" value="&lt;font style=&quot;font-size: 16px;&quot;&gt;Generate report&lt;/font&gt;" style="text;html=1;align=center;verticalAlign=middle;resizable=0;points=[];autosize=1;strokeColor=none;fillColor=none;" vertex="1" parent="1">
          <mxGeometry x="290" y="90" width="140" height="30" as="geometry" />
        </mxCell>
        <mxCell id="UZP56nt51odomZRpYaf9-49" value="&lt;font style=&quot;font-size: 16px;&quot;&gt;Generate schedule&lt;/font&gt;" style="text;html=1;align=center;verticalAlign=middle;resizable=0;points=[];autosize=1;strokeColor=none;fillColor=none;" vertex="1" parent="1">
          <mxGeometry x="285" y="120" width="160" height="30" as="geometry" />
        </mxCell>
        <mxCell id="UZP56nt51odomZRpYaf9-50" value="" style="endArrow=classic;html=1;rounded=0;entryX=0.867;entryY=1.025;entryDx=0;entryDy=0;entryPerimeter=0;exitX=0.227;exitY=0.913;exitDx=0;exitDy=0;exitPerimeter=0;" edge="1" parent="1" source="UZP56nt51odomZRpYaf9-2" target="UZP56nt51odomZRpYaf9-1">
          <mxGeometry width="50" height="50" relative="1" as="geometry">
            <mxPoint x="670" y="176" as="sourcePoint" />
            <mxPoint x="150" y="162" as="targetPoint" />
            <Array as="points">
              <mxPoint x="370" y="176" />
              <mxPoint x="140" y="176" />
            </Array>
          </mxGeometry>
        </mxCell>
        <mxCell id="UZP56nt51odomZRpYaf9-51" value="&lt;font style=&quot;font-size: 16px;&quot;&gt;Checks eligibility criteria&lt;/font&gt;" style="text;html=1;align=center;verticalAlign=middle;resizable=0;points=[];autosize=1;strokeColor=none;fillColor=none;" vertex="1" parent="1">
          <mxGeometry x="265" y="148" width="190" height="30" as="geometry" />
        </mxCell>
        <mxCell id="UZP56nt51odomZRpYaf9-52" value="&lt;font style=&quot;font-size: 16px;&quot;&gt;View company details&lt;/font&gt;" style="text;html=1;align=center;verticalAlign=middle;resizable=0;points=[];autosize=1;strokeColor=none;fillColor=none;" vertex="1" parent="1">
          <mxGeometry x="315" y="540" width="180" height="30" as="geometry" />
        </mxCell>
        <mxCell id="UZP56nt51odomZRpYaf9-53" value="&lt;font style=&quot;font-size: 16px;&quot;&gt;Upload question bank&lt;/font&gt;" style="text;html=1;align=center;verticalAlign=middle;resizable=0;points=[];autosize=1;strokeColor=none;fillColor=none;" vertex="1" parent="1">
          <mxGeometry x="315" y="510" width="180" height="30" as="geometry" />
        </mxCell>
        <mxCell id="UZP56nt51odomZRpYaf9-54" value="&lt;font style=&quot;font-size: 16px;&quot;&gt;Login&lt;/font&gt;" style="text;html=1;align=center;verticalAlign=middle;resizable=0;points=[];autosize=1;strokeColor=none;fillColor=none;" vertex="1" parent="1">
          <mxGeometry x="354" y="480" width="60" height="30" as="geometry" />
        </mxCell>
        <mxCell id="UZP56nt51odomZRpYaf9-55" value="&lt;font style=&quot;font-size: 16px;&quot;&gt;View result&lt;/font&gt;" style="text;html=1;align=center;verticalAlign=middle;resizable=0;points=[];autosize=1;strokeColor=none;fillColor=none;" vertex="1" parent="1">
          <mxGeometry x="334" y="450" width="100" height="30" as="geometry" />
        </mxCell>
        <mxCell id="UZP56nt51odomZRpYaf9-56" value="&lt;font style=&quot;font-size: 16px;&quot;&gt;View schedule&lt;/font&gt;" style="text;html=1;align=center;verticalAlign=middle;resizable=0;points=[];autosize=1;strokeColor=none;fillColor=none;" vertex="1" parent="1">
          <mxGeometry x="325" y="420" width="130" height="30" as="geometry" />
        </mxCell>
      </root>
    </mxGraphModel>
  </diagram>
</mxfile>
